<mxfile host="app.diagrams.net" modified="2022-05-12T13:51:39.220Z" agent="5.0 (Windows NT 10.0; Win64; x64) AppleWebKit/537.36 (KHTML, like Gecko) Chrome/101.0.4951.54 Safari/537.36" etag="4AZ2siJzx_RYGXFPdave" version="18.0.3" type="github">
  <diagram id="XPm6OB6YIkH2uQ_w9jQT" name="Page-1">
    <mxGraphModel dx="1038" dy="581" grid="1" gridSize="10" guides="1" tooltips="1" connect="1" arrows="1" fold="1" page="1" pageScale="1" pageWidth="827" pageHeight="1169" math="0" shadow="0">
      <root>
        <mxCell id="0" />
        <mxCell id="1" parent="0" />
        <mxCell id="GqO4Nqbue9vQGBjI_UQt-2" value="" style="rounded=0;whiteSpace=wrap;html=1;" vertex="1" parent="1">
          <mxGeometry x="42" y="30" width="760" height="590" as="geometry" />
        </mxCell>
        <mxCell id="GqO4Nqbue9vQGBjI_UQt-3" value="&lt;span style=&quot;font-size: 10px;&quot;&gt;Image Logo&lt;/span&gt;" style="rounded=0;whiteSpace=wrap;html=1;" vertex="1" parent="1">
          <mxGeometry x="92" y="40" width="80" height="40" as="geometry" />
        </mxCell>
        <mxCell id="GqO4Nqbue9vQGBjI_UQt-4" value="Hbutton" style="rounded=0;whiteSpace=wrap;html=1;" vertex="1" parent="1">
          <mxGeometry x="442" y="50" width="50" height="20" as="geometry" />
        </mxCell>
        <mxCell id="GqO4Nqbue9vQGBjI_UQt-5" value="Pbutton" style="rounded=0;whiteSpace=wrap;html=1;" vertex="1" parent="1">
          <mxGeometry x="502" y="50" width="50" height="20" as="geometry" />
        </mxCell>
        <mxCell id="GqO4Nqbue9vQGBjI_UQt-6" value="Abutton" style="rounded=0;whiteSpace=wrap;html=1;" vertex="1" parent="1">
          <mxGeometry x="562" y="50" width="50" height="20" as="geometry" />
        </mxCell>
        <mxCell id="GqO4Nqbue9vQGBjI_UQt-7" value="ACbutton" style="rounded=0;whiteSpace=wrap;html=1;" vertex="1" parent="1">
          <mxGeometry x="622" y="50" width="60" height="20" as="geometry" />
        </mxCell>
        <mxCell id="GqO4Nqbue9vQGBjI_UQt-8" value="Cartbtn" style="rounded=0;whiteSpace=wrap;html=1;" vertex="1" parent="1">
          <mxGeometry x="692" y="50" width="60" height="20" as="geometry" />
        </mxCell>
        <mxCell id="GqO4Nqbue9vQGBjI_UQt-9" value="" style="rounded=0;whiteSpace=wrap;html=1;" vertex="1" parent="1">
          <mxGeometry x="42" y="530" width="760" height="90" as="geometry" />
        </mxCell>
        <mxCell id="GqO4Nqbue9vQGBjI_UQt-10" value="Tải Ứng Dụng Của Chúng Tôi" style="text;html=1;strokeColor=none;fillColor=none;align=center;verticalAlign=middle;whiteSpace=wrap;rounded=0;fontSize=10;" vertex="1" parent="1">
          <mxGeometry x="42" y="540" width="140" height="10" as="geometry" />
        </mxCell>
        <mxCell id="GqO4Nqbue9vQGBjI_UQt-11" value="Tải Ứng Dụng bằng Android và IOS dành cho điện thoại" style="text;html=1;strokeColor=none;fillColor=none;align=center;verticalAlign=middle;whiteSpace=wrap;rounded=0;fontSize=10;" vertex="1" parent="1">
          <mxGeometry x="40" y="554" width="260" height="10" as="geometry" />
        </mxCell>
        <mxCell id="GqO4Nqbue9vQGBjI_UQt-12" value="TextSuggestion" style="rounded=0;whiteSpace=wrap;html=1;fontSize=10;" vertex="1" parent="1">
          <mxGeometry x="82" y="575" width="80" height="25" as="geometry" />
        </mxCell>
        <mxCell id="GqO4Nqbue9vQGBjI_UQt-13" value="TextSuggestion2" style="rounded=0;whiteSpace=wrap;html=1;fontSize=10;" vertex="1" parent="1">
          <mxGeometry x="172" y="575" width="80" height="25" as="geometry" />
        </mxCell>
        <mxCell id="GqO4Nqbue9vQGBjI_UQt-14" value="Image Logo" style="rounded=0;whiteSpace=wrap;html=1;fontSize=10;" vertex="1" parent="1">
          <mxGeometry x="352" y="554" width="90" height="40" as="geometry" />
        </mxCell>
        <mxCell id="GqO4Nqbue9vQGBjI_UQt-15" value="Đường Dẫn" style="text;html=1;strokeColor=none;fillColor=none;align=center;verticalAlign=middle;whiteSpace=wrap;rounded=0;fontSize=10;" vertex="1" parent="1">
          <mxGeometry x="517" y="534" width="60" height="30" as="geometry" />
        </mxCell>
        <mxCell id="GqO4Nqbue9vQGBjI_UQt-16" value="TextLink1" style="rounded=0;whiteSpace=wrap;html=1;fontSize=10;" vertex="1" parent="1">
          <mxGeometry x="512" y="564" width="70" height="21" as="geometry" />
        </mxCell>
        <mxCell id="GqO4Nqbue9vQGBjI_UQt-17" value="TextLink2" style="rounded=0;whiteSpace=wrap;html=1;fontSize=10;" vertex="1" parent="1">
          <mxGeometry x="512" y="590" width="70" height="21" as="geometry" />
        </mxCell>
        <mxCell id="GqO4Nqbue9vQGBjI_UQt-18" value="Follow Chúng tôi" style="text;html=1;strokeColor=none;fillColor=none;align=center;verticalAlign=middle;whiteSpace=wrap;rounded=0;fontSize=10;" vertex="1" parent="1">
          <mxGeometry x="662" y="534" width="80" height="30" as="geometry" />
        </mxCell>
        <mxCell id="GqO4Nqbue9vQGBjI_UQt-19" value="TextLinkApp1" style="rounded=0;whiteSpace=wrap;html=1;fontSize=10;" vertex="1" parent="1">
          <mxGeometry x="667" y="564" width="70" height="21" as="geometry" />
        </mxCell>
        <mxCell id="GqO4Nqbue9vQGBjI_UQt-20" value="TextLinkApp2" style="rounded=0;whiteSpace=wrap;html=1;fontSize=10;" vertex="1" parent="1">
          <mxGeometry x="667" y="590" width="70" height="21" as="geometry" />
        </mxCell>
        <mxCell id="GqO4Nqbue9vQGBjI_UQt-30" value="" style="rounded=0;whiteSpace=wrap;html=1;" vertex="1" parent="1">
          <mxGeometry x="92" y="140" width="658" height="20" as="geometry" />
        </mxCell>
        <mxCell id="GqO4Nqbue9vQGBjI_UQt-31" value="Sản Phẩm" style="text;html=1;strokeColor=none;fillColor=none;align=center;verticalAlign=middle;whiteSpace=wrap;rounded=0;" vertex="1" parent="1">
          <mxGeometry x="102" y="137.5" width="60" height="25" as="geometry" />
        </mxCell>
        <mxCell id="GqO4Nqbue9vQGBjI_UQt-32" value="Số Lượng" style="text;html=1;strokeColor=none;fillColor=none;align=center;verticalAlign=middle;whiteSpace=wrap;rounded=0;" vertex="1" parent="1">
          <mxGeometry x="384" y="137.5" width="60" height="25" as="geometry" />
        </mxCell>
        <mxCell id="GqO4Nqbue9vQGBjI_UQt-33" value="Subtotal" style="text;html=1;strokeColor=none;fillColor=none;align=center;verticalAlign=middle;whiteSpace=wrap;rounded=0;" vertex="1" parent="1">
          <mxGeometry x="682" y="137.5" width="60" height="25" as="geometry" />
        </mxCell>
        <mxCell id="GqO4Nqbue9vQGBjI_UQt-35" value="ProductItem1" style="rounded=0;whiteSpace=wrap;html=1;fontSize=11;" vertex="1" parent="1">
          <mxGeometry x="92" y="190" width="120" height="60" as="geometry" />
        </mxCell>
        <mxCell id="GqO4Nqbue9vQGBjI_UQt-36" value="ProductItem2" style="rounded=0;whiteSpace=wrap;html=1;fontSize=11;" vertex="1" parent="1">
          <mxGeometry x="92" y="260" width="120" height="60" as="geometry" />
        </mxCell>
        <mxCell id="GqO4Nqbue9vQGBjI_UQt-37" value="ProductItem3" style="rounded=0;whiteSpace=wrap;html=1;fontSize=11;" vertex="1" parent="1">
          <mxGeometry x="92" y="330" width="120" height="60" as="geometry" />
        </mxCell>
        <mxCell id="GqO4Nqbue9vQGBjI_UQt-38" value="txtquantity1" style="rounded=0;whiteSpace=wrap;html=1;" vertex="1" parent="1">
          <mxGeometry x="373.5" y="210" width="81" height="20" as="geometry" />
        </mxCell>
        <mxCell id="GqO4Nqbue9vQGBjI_UQt-39" value="txtquantity2" style="rounded=0;whiteSpace=wrap;html=1;" vertex="1" parent="1">
          <mxGeometry x="373.5" y="280" width="81" height="20" as="geometry" />
        </mxCell>
        <mxCell id="GqO4Nqbue9vQGBjI_UQt-40" value="txtquantity3" style="rounded=0;whiteSpace=wrap;html=1;" vertex="1" parent="1">
          <mxGeometry x="373" y="350" width="81" height="20" as="geometry" />
        </mxCell>
        <mxCell id="GqO4Nqbue9vQGBjI_UQt-42" value="lblPrice1" style="text;html=1;strokeColor=none;fillColor=none;align=center;verticalAlign=middle;whiteSpace=wrap;rounded=0;" vertex="1" parent="1">
          <mxGeometry x="692" y="205" width="53" height="30" as="geometry" />
        </mxCell>
        <mxCell id="GqO4Nqbue9vQGBjI_UQt-43" value="lblPrice2" style="text;html=1;strokeColor=none;fillColor=none;align=center;verticalAlign=middle;whiteSpace=wrap;rounded=0;" vertex="1" parent="1">
          <mxGeometry x="689" y="275" width="53" height="30" as="geometry" />
        </mxCell>
        <mxCell id="GqO4Nqbue9vQGBjI_UQt-44" value="lblPrice3" style="text;html=1;strokeColor=none;fillColor=none;align=center;verticalAlign=middle;whiteSpace=wrap;rounded=0;" vertex="1" parent="1">
          <mxGeometry x="689" y="345" width="53" height="30" as="geometry" />
        </mxCell>
        <mxCell id="GqO4Nqbue9vQGBjI_UQt-46" value="" style="line;strokeWidth=2;html=1;" vertex="1" parent="1">
          <mxGeometry x="512" y="400" width="238" height="10" as="geometry" />
        </mxCell>
        <mxCell id="GqO4Nqbue9vQGBjI_UQt-47" value="Tổng phụ" style="text;html=1;strokeColor=none;fillColor=none;align=center;verticalAlign=middle;whiteSpace=wrap;rounded=0;" vertex="1" parent="1">
          <mxGeometry x="512" y="410" width="60" height="30" as="geometry" />
        </mxCell>
        <mxCell id="GqO4Nqbue9vQGBjI_UQt-48" value="Thuế" style="text;html=1;strokeColor=none;fillColor=none;align=center;verticalAlign=middle;whiteSpace=wrap;rounded=0;" vertex="1" parent="1">
          <mxGeometry x="517" y="440" width="28" height="30" as="geometry" />
        </mxCell>
        <mxCell id="GqO4Nqbue9vQGBjI_UQt-49" value="Tổng Toàn Bộ" style="text;html=1;strokeColor=none;fillColor=none;align=center;verticalAlign=middle;whiteSpace=wrap;rounded=0;" vertex="1" parent="1">
          <mxGeometry x="512" y="470" width="83" height="30" as="geometry" />
        </mxCell>
        <mxCell id="GqO4Nqbue9vQGBjI_UQt-50" value="lblSubtotal" style="text;html=1;strokeColor=none;fillColor=none;align=center;verticalAlign=middle;whiteSpace=wrap;rounded=0;" vertex="1" parent="1">
          <mxGeometry x="685" y="410" width="60" height="30" as="geometry" />
        </mxCell>
        <mxCell id="GqO4Nqbue9vQGBjI_UQt-51" value="lblTax" style="text;html=1;strokeColor=none;fillColor=none;align=center;verticalAlign=middle;whiteSpace=wrap;rounded=0;" vertex="1" parent="1">
          <mxGeometry x="672" y="440" width="60" height="30" as="geometry" />
        </mxCell>
        <mxCell id="GqO4Nqbue9vQGBjI_UQt-52" value="lblTotal" style="text;html=1;strokeColor=none;fillColor=none;align=center;verticalAlign=middle;whiteSpace=wrap;rounded=0;" vertex="1" parent="1">
          <mxGeometry x="677" y="470" width="60" height="30" as="geometry" />
        </mxCell>
      </root>
    </mxGraphModel>
  </diagram>
</mxfile>
